<svg width="35" height="35" viewBox="0 0 35 35" fill="none" xmlns="http://www.w3.org/2000/svg">
<path d="M12.1812 1.16217L6.23755 7.12224M22.6565 1.16217L28.6001 7.12224" stroke="black" stroke-opacity="0.6" stroke-width="1.82432" stroke-miterlimit="10" stroke-linecap="round" stroke-linejoin="round"/>
<path d="M1 10.7672C1 7.72974 2.62547 7.48346 4.645 7.48346H30.1928C32.2124 7.48346 33.8378 7.72974 33.8378 10.7672C33.8378 14.2973 32.2124 14.051 30.1928 14.051H4.645C2.62547 14.051 1 14.2973 1 10.7672Z" stroke="black" stroke-opacity="0.6" stroke-width="1.82432"/>
<path d="M13.7411 20.8649V26.6936M21.2938 20.8649V26.6936M3.46289 14.2973L5.77796 28.4832C6.30336 31.6685 7.56762 34 12.2634 34H22.164C27.2703 34 28.0256 31.767 28.6167 28.6803L31.3751 14.2973" stroke="black" stroke-opacity="0.6" stroke-width="1.82432" stroke-linecap="round"/>
</svg>
