<svg width="32" height="32" viewBox="0 0 32 32" fill="none" xmlns="http://www.w3.org/2000/svg">
<path d="M16 31.9216C24.8366 31.9216 32 24.7757 32 15.9608C32 7.1459 24.8366 0 16 0C7.16344 0 0 7.1459 0 15.9608C0 24.7757 7.16344 31.9216 16 31.9216Z" fill="url(#paint0_linear_2_18)"/>
<path fill-rule="evenodd" clip-rule="evenodd" d="M7.25229 15.7868C11.9127 13.7482 15.028 12.4305 16.5732 11.7841C21.0093 9.94441 21.9314 9.62122 22.5295 9.62122C22.6542 9.62122 22.9532 9.64608 23.1526 9.79524C23.3021 9.91955 23.352 10.0936 23.3769 10.2179C23.4018 10.3422 23.4267 10.6157 23.4018 10.8394C23.1526 13.3504 22.1308 19.4911 21.5825 22.3004C21.3582 23.4937 20.9096 23.8915 20.4859 23.9412C19.5638 24.0158 18.8411 23.3197 17.9439 22.7479C16.5482 21.828 15.7507 21.2562 14.38 20.3612C12.8099 19.317 13.8317 18.7452 14.7289 17.8254C14.9532 17.5768 19.0654 13.8725 19.1401 13.5244C19.1401 13.4747 19.1651 13.3255 19.0654 13.2509C18.9657 13.1764 18.8411 13.2012 18.7414 13.2261C18.5919 13.2509 16.3489 14.7426 11.9875 17.6762C11.3395 18.1237 10.7663 18.3226 10.2429 18.3226C9.66974 18.3226 8.57316 17.9994 7.75073 17.7259C6.75385 17.4027 5.95634 17.2287 6.03111 16.6818C6.10587 16.3834 6.50463 16.0851 7.25229 15.7868Z" fill="white"/>
<defs>
<linearGradient id="paint0_linear_2_18" x1="0.0237259" y1="15.9493" x2="32.0006" y2="15.9493" gradientUnits="userSpaceOnUse">
<stop stop-color="#2AABEE"/>
<stop offset="1" stop-color="#229ED9"/>
</linearGradient>
</defs>
</svg>
